<?xml version="1.0" encoding="UTF-8" standalone="no"?>
<!DOCTYPE svg PUBLIC "-//W3C//DTD SVG 1.1//EN" "http://www.w3.org/Graphics/SVG/1.1/DTD/svg11.dtd">
<svg width="100%" height="100%" viewBox="0 0 256 256" version="1.1" xmlns="http://www.w3.org/2000/svg" xmlns:xlink="http://www.w3.org/1999/xlink" xml:space="preserve" xmlns:serif="http://www.serif.com/" style="fill-rule:evenodd;clip-rule:evenodd;stroke-linejoin:round;stroke-miterlimit:2;">
    <g id="Logo" transform="matrix(0.197245,0,0,0.197245,11.5166,11.5166)">
        <g transform="matrix(1.95278,0,0,1.95278,33.0651,159.791)">
            <path d="M569.175,142.597C567.738,141.944 566.051,142.431 565.174,143.724C564.8,143.975 564.473,144.307 564.225,144.713C533.513,194.902 499.022,235.867 466.9,268.064C458.23,276.723 449.737,284.742 441.543,292.13C419.841,274.377 398.471,252.411 380.424,225.479C379.532,224.152 377.809,223.671 376.36,224.359C375.82,224.616 375.381,225.005 375.066,225.472C373.913,226.255 373.375,227.709 373.793,229.077C384.764,265.067 400.808,292.587 417.044,313.171C379.681,343.71 353.03,358.572 352.463,358.883C351.997,359.139 351.618,359.499 351.337,359.92C350.228,360.679 349.687,362.054 350.025,363.377C350.392,364.805 351.678,365.803 353.151,365.803L428.436,365.803C429.239,365.803 430.002,365.505 430.588,364.981L430.59,364.983C433.01,363.032 440.177,357.073 450.24,347.125C464.064,358.425 474.707,364.05 477.497,365.439C477.952,365.674 478.462,365.803 478.987,365.803L564.356,365.803C565.461,365.803 566.446,365.243 567.029,364.38C567.774,363.875 568.3,363.067 568.42,362.117C568.623,360.505 567.595,358.991 566.021,358.587C565.334,358.411 524.612,347.614 477.297,317.812C507.844,281.559 546.467,224.396 570.918,146.5C571.407,144.945 570.658,143.271 569.175,142.597Z" style="fill:url(#_Linear1);"/>
        </g>
        <g transform="matrix(1.95278,0,0,1.95278,33.0651,159.791)">
            <path d="M516.158,62.881C514.721,62.231 513.031,62.716 512.156,64.009C511.784,64.261 511.457,64.592 511.209,64.999C465.022,140.477 413.146,202.069 364.841,250.467C351.338,263.965 338.119,276.428 325.385,287.875C292.953,261.405 260.09,228.016 232.359,186.632C231.469,185.303 229.739,184.823 228.295,185.514C227.756,185.77 227.318,186.158 227.003,186.625C225.851,187.407 225.312,188.862 225.729,190.231C242.351,244.76 266.755,286.268 291.341,317.14C234.275,363.999 193.398,386.786 192.537,387.258C192.069,387.515 191.689,387.876 191.407,388.298C190.299,389.058 189.76,390.431 190.099,391.753C190.465,393.18 191.751,394.178 193.225,394.178L306.149,394.178C306.98,394.178 307.772,393.858 308.363,393.299L308.369,393.305C312.069,390.322 323.179,381.079 338.748,365.608C359.9,383.069 376.253,391.706 380.474,393.808C380.933,394.047 381.446,394.178 381.975,394.178L510.029,394.178C511.134,394.178 512.12,393.619 512.703,392.755C513.445,392.25 513.973,391.442 514.093,390.492C514.296,388.878 513.268,387.366 511.694,386.962C511.255,386.85 467.192,375.362 410.966,345.008C400.257,339.226 388.637,332.491 376.47,324.74C422.38,270.58 480.949,184.506 517.901,66.786C518.39,65.231 517.642,63.556 516.158,62.881Z" style="fill:url(#_Linear2);"/>
        </g>
        <g transform="matrix(1.95278,0,0,1.95278,33.0651,159.791)">
            <path d="M432.973,1.04C431.536,0.387 429.847,0.875 428.972,2.168C428.598,2.419 428.272,2.751 428.023,3.157C365.055,106.061 294.427,189.001 231.65,251.922C213.394,270.187 195.813,286.75 179.283,301.62C135.667,266.146 91.422,221.318 54.125,165.659C53.237,164.331 51.508,163.853 50.061,164.541C49.522,164.797 49.084,165.187 48.77,165.652C47.617,166.436 47.079,167.891 47.496,169.26C66.833,232.698 97.004,290.513 135.824,339.02C58.855,402.321 3.02,433.187 2.437,433.505C1.969,433.762 1.589,434.124 1.307,434.546C0.2,435.306 -0.338,436.676 0,438C0.366,439.427 1.652,440.426 3.125,440.426L153.695,440.426C154.476,440.426 155.219,440.144 155.798,439.647L155.982,439.497C160.969,435.478 176.07,422.914 197.208,401.847C226.049,425.874 248.091,437.466 253.284,440.051C253.744,440.295 254.261,440.426 254.794,440.426L425.533,440.426C426.638,440.426 427.624,439.866 428.207,439.002C428.951,438.497 429.478,437.689 429.597,436.737C429.801,435.125 428.772,433.614 427.198,433.209C426.614,433.061 367.93,417.782 292.884,377.298C278.211,369.383 262.26,360.129 245.554,349.449C306.809,277.382 385.283,162.426 434.716,4.944C435.205,3.389 434.456,1.714 432.973,1.04Z" style="fill:url(#_Linear3);"/>
        </g>
        <g transform="matrix(1.95278,0,0,1.95278,33.0651,159.791)">
            <path d="M179.644,185.525C195.579,185.525 210.004,178.951 220.358,168.375C230.934,158.022 237.509,143.597 237.509,127.662C237.509,96.231 211.937,70.659 180.507,70.659C164.573,70.659 150.148,77.233 139.794,87.809C129.216,98.164 122.642,112.589 122.642,128.524C122.642,159.955 148.214,185.525 179.644,185.525Z" style="fill:url(#_Linear4);"/>
        </g>
    </g>
    <rect id="Overlay" x="-10.411" y="-12.717" width="279.193" height="276.617" style="fill:rgb(106,52,175);fill-opacity:0.75;"/>
    <g transform="matrix(3.59539,0,0,1,-69.2036,0)">
        <path d="M26.679,232.806L26.679,196.429L30.461,196.429C31.235,196.429 31.887,196.95 32.417,197.991C32.947,199.033 33.347,200.461 33.619,202.276C33.891,204.091 34.026,206.154 34.026,208.465C34.026,210.792 33.889,212.859 33.616,214.666C33.342,216.473 32.938,217.897 32.403,218.939C31.869,219.98 31.213,220.501 30.434,220.501L27.929,220.501L27.929,215.13L30.197,215.13C30.654,215.13 31.028,214.845 31.32,214.275C31.612,213.706 31.827,212.916 31.965,211.907C32.104,210.898 32.173,209.751 32.173,208.465C32.173,207.179 32.104,206.04 31.965,205.047C31.827,204.054 31.611,203.281 31.317,202.728C31.023,202.174 30.645,201.898 30.183,201.898L28.492,201.898L28.492,232.806L26.679,232.806Z" style="fill:rgb(235,235,235);fill-rule:nonzero;stroke:rgb(235,235,235);stroke-width:0.38px;"/>
        <path d="M35.568,232.806L35.568,205.511L37.279,205.511L37.279,210.076L37.36,210.076C37.496,208.497 37.734,207.281 38.073,206.426C38.413,205.572 38.8,205.145 39.235,205.145C39.334,205.145 39.445,205.161 39.567,205.193C39.69,205.226 39.794,205.267 39.88,205.316L39.88,211.15C39.807,211.069 39.69,210.996 39.527,210.931C39.364,210.866 39.203,210.833 39.044,210.833C38.718,210.833 38.425,211.085 38.165,211.59C37.905,212.094 37.701,212.79 37.554,213.677C37.407,214.564 37.333,215.586 37.333,216.741L37.333,232.806L35.568,232.806Z" style="fill:rgb(235,235,235);fill-rule:nonzero;stroke:rgb(235,235,235);stroke-width:0.38px;"/>
        <path d="M44.137,233.367C43.372,233.367 42.715,232.789 42.165,231.634C41.615,230.478 41.191,228.851 40.895,226.751C40.598,224.651 40.45,222.177 40.45,219.329C40.45,216.513 40.596,214.048 40.888,211.932C41.18,209.816 41.594,208.16 42.131,206.963C42.667,205.767 43.297,205.169 44.022,205.169C44.484,205.169 44.924,205.438 45.343,205.975C45.761,206.512 46.132,207.342 46.456,208.465C46.78,209.588 47.033,211.016 47.217,212.75C47.4,214.483 47.492,216.546 47.492,218.939L47.492,220.941L41.285,220.941L41.285,216.619L46.616,216.619L45.787,217.889C45.787,216.359 45.722,215.012 45.59,213.848C45.459,212.684 45.263,211.777 45.003,211.126C44.743,210.475 44.418,210.149 44.029,210.149C43.639,210.149 43.309,210.479 43.037,211.138C42.766,211.797 42.558,212.676 42.416,213.775C42.273,214.874 42.202,216.098 42.202,217.449L42.202,220.428C42.202,222.153 42.283,223.61 42.446,224.798C42.609,225.986 42.838,226.881 43.132,227.483C43.426,228.086 43.768,228.387 44.158,228.387C44.416,228.387 44.65,228.253 44.86,227.984C45.071,227.715 45.253,227.317 45.407,226.788C45.561,226.259 45.676,225.612 45.753,224.847L47.376,226.043C47.254,227.508 47.046,228.79 46.752,229.888C46.457,230.987 46.089,231.841 45.648,232.452C45.207,233.062 44.703,233.367 44.137,233.367Z" style="fill:rgb(235,235,235);fill-rule:nonzero;stroke:rgb(235,235,235);stroke-width:0.38px;"/>
        <path d="M51.878,233.367C51.294,233.367 50.778,233.066 50.33,232.464C49.882,231.862 49.514,230.983 49.227,229.827C48.939,228.672 48.752,227.272 48.666,225.628L50.316,224.505C50.421,225.856 50.605,226.861 50.87,227.52C51.135,228.179 51.482,228.509 51.912,228.509C52.347,228.509 52.692,228.196 52.948,227.569C53.204,226.942 53.331,226.165 53.331,225.237C53.331,224.456 53.248,223.809 53.08,223.296C52.913,222.784 52.655,222.389 52.306,222.112L51.009,221.111C50.294,220.558 49.76,219.647 49.407,218.377C49.053,217.108 48.877,215.472 48.877,213.47C48.877,211.777 49.006,210.312 49.264,209.075C49.522,207.838 49.881,206.878 50.34,206.194C50.8,205.511 51.333,205.169 51.939,205.169C52.514,205.169 53.009,205.462 53.423,206.048C53.837,206.634 54.172,207.452 54.428,208.502C54.684,209.551 54.861,210.784 54.961,212.2L53.386,213.323C53.3,212.363 53.144,211.553 52.917,210.894C52.691,210.235 52.372,209.905 51.96,209.905C51.584,209.905 51.271,210.202 51.019,210.796C50.768,211.391 50.642,212.151 50.642,213.079C50.642,213.877 50.726,214.536 50.894,215.057C51.061,215.578 51.337,215.984 51.722,216.277L53.012,217.254C53.732,217.807 54.266,218.694 54.615,219.915C54.963,221.136 55.138,222.706 55.138,224.627C55.138,226.352 55,227.87 54.723,229.18C54.447,230.49 54.064,231.516 53.572,232.256C53.081,232.997 52.517,233.367 51.878,233.367Z" style="fill:rgb(235,235,235);fill-rule:nonzero;stroke:rgb(235,235,235);stroke-width:0.38px;"/>
        <path d="M59.517,233.367C58.933,233.367 58.417,233.066 57.969,232.464C57.521,231.862 57.153,230.983 56.866,229.827C56.578,228.672 56.392,227.272 56.306,225.628L57.956,224.505C58.06,225.856 58.244,226.861 58.509,227.52C58.774,228.179 59.121,228.509 59.551,228.509C59.986,228.509 60.331,228.196 60.587,227.569C60.843,226.942 60.971,226.165 60.971,225.237C60.971,224.456 60.887,223.809 60.719,223.296C60.552,222.784 60.294,222.389 59.945,222.112L58.648,221.111C57.933,220.558 57.399,219.647 57.046,218.377C56.693,217.108 56.516,215.472 56.516,213.47C56.516,211.777 56.645,210.312 56.903,209.075C57.161,207.838 57.52,206.878 57.979,206.194C58.439,205.511 58.972,205.169 59.579,205.169C60.153,205.169 60.648,205.462 61.062,206.048C61.476,206.634 61.811,207.452 62.067,208.502C62.323,209.551 62.501,210.784 62.6,212.2L61.025,213.323C60.939,212.363 60.783,211.553 60.556,210.894C60.33,210.235 60.011,209.905 59.599,209.905C59.223,209.905 58.91,210.202 58.658,210.796C58.407,211.391 58.282,212.151 58.282,213.079C58.282,213.877 58.365,214.536 58.533,215.057C58.7,215.578 58.976,215.984 59.361,216.277L60.651,217.254C61.371,217.807 61.905,218.694 62.254,219.915C62.603,221.136 62.777,222.706 62.777,224.627C62.777,226.352 62.639,227.87 62.363,229.18C62.086,230.49 61.703,231.516 61.212,232.256C60.72,232.997 60.156,233.367 59.517,233.367Z" style="fill:rgb(235,235,235);fill-rule:nonzero;stroke:rgb(235,235,235);stroke-width:0.38px;"/>
        <path d="M64.366,232.806L64.366,196.429L67.096,196.429L69.017,215.203C69.085,215.903 69.161,216.802 69.245,217.901C69.328,219 69.414,220.184 69.503,221.453C69.591,222.723 69.675,223.964 69.754,225.176C69.833,226.389 69.9,227.459 69.954,228.387L69.588,228.387C69.642,227.475 69.709,226.421 69.788,225.225C69.867,224.029 69.951,222.792 70.039,221.514C70.127,220.237 70.213,219.044 70.297,217.938C70.381,216.831 70.454,215.919 70.518,215.203L72.419,196.429L75.156,196.429L75.156,232.806L73.349,232.806L73.349,214.446C73.349,213.665 73.352,212.721 73.356,211.614C73.361,210.508 73.368,209.319 73.377,208.05C73.386,206.78 73.395,205.499 73.404,204.205C73.413,202.911 73.417,201.678 73.417,200.506L73.546,200.506C73.456,201.792 73.357,203.106 73.251,204.449C73.145,205.792 73.039,207.094 72.935,208.355C72.831,209.616 72.733,210.776 72.64,211.834C72.547,212.892 72.467,213.763 72.399,214.446L70.531,232.806L68.99,232.806L67.096,214.446C67.028,213.763 66.947,212.904 66.854,211.871C66.762,210.837 66.662,209.694 66.556,208.441C66.449,207.187 66.343,205.881 66.237,204.522C66.13,203.163 66.025,201.824 65.921,200.506L66.07,200.506C66.075,201.596 66.081,202.781 66.091,204.058C66.1,205.336 66.108,206.618 66.114,207.903C66.121,209.189 66.128,210.398 66.135,211.529C66.141,212.66 66.145,213.633 66.145,214.446L66.145,232.806L64.366,232.806Z" style="fill:rgb(79,213,213);fill-rule:nonzero;stroke:rgb(79,213,213);stroke-width:0.38px;"/>
        <path d="M77.193,232.806L77.193,196.429L79.006,196.429L79.006,227.313L83.474,227.313L83.474,232.806L77.193,232.806Z" style="fill:rgb(79,213,213);fill-rule:nonzero;stroke:rgb(79,213,213);stroke-width:0.38px;"/>
    </g>
    <g transform="matrix(1.55692,0,0,1.55692,-103.481,-15.1473)">
        <path d="M105.098,122.289C104.791,118.87 106.943,105.438 107.315,97.06C107.685,88.724 106.586,80.133 107.33,72.026C108.062,64.051 109.183,54.525 111.779,48.415C114.014,43.155 118.854,38.484 122.904,35.369C126.691,32.456 131.5,31.087 136.078,29.722C141.116,28.221 148.486,26.755 154.336,27.323C159.361,27.812 164.603,29.161 168.94,31.344C173.276,33.527 177.115,37.142 180.356,40.422C183.473,43.577 186.605,46.968 188.389,51.028C190.37,55.534 191.889,62.671 192.239,67.46C192.541,71.59 191.412,76.092 190.491,79.761C189.646,83.129 188.162,86.779 186.714,89.47C185.434,91.849 183.605,93.904 181.799,95.912C179.84,98.089 177.324,100.817 174.961,102.532C172.747,104.138 170.186,105.251 167.621,106.2C164.79,107.248 161.257,108.25 157.974,108.818C154.663,109.391 151.149,109.399 147.757,109.638C144.382,109.875 141.009,110.221 137.626,110.25C134.004,110.282 128.72,109.888 126.025,109.83C124.502,109.796 122.922,109.489 121.455,109.9C119.134,110.55 114.15,112.45 112.1,113.73C110.73,114.585 110.178,116.327 109.155,117.577C107.988,119.003 105.283,124.353 105.098,122.289Z" style="fill:none;stroke:rgb(79,213,213);stroke-width:5.35px;stroke-linecap:round;stroke-miterlimit:1.5;"/>
        <g transform="matrix(1,0,0,1,-11.6004,-5.80496)">
            <circle cx="161.262" cy="74.795" r="29.736" style="fill:none;stroke:rgb(79,213,213);stroke-width:5.35px;stroke-linecap:round;stroke-miterlimit:1.5;"/>
        </g>
        <path d="M127.839,50.579C135.371,55.478 140.352,57.12 151.32,56.58C161.348,56.085 165.812,54.419 171.903,49.039" style="fill:none;stroke:rgb(79,213,213);stroke-width:5.35px;stroke-linecap:round;stroke-miterlimit:1.5;"/>
        <path d="M120.691,68.118C140.189,68.157 159.687,68.197 179.186,68.236" style="fill:none;stroke:rgb(79,213,213);stroke-width:5.35px;stroke-linecap:round;stroke-miterlimit:1.5;"/>
        <path d="M126.543,87.124C144.334,77.322 153.575,77.643 172.251,84.986" style="fill:none;stroke:rgb(79,213,213);stroke-width:5.35px;stroke-linecap:round;stroke-miterlimit:1.5;"/>
        <path d="M149.808,39.775C136.594,53.298 138.183,60.821 139.1,77.278C139.742,88.791 140.396,88.837 147.496,97.827" style="fill:none;stroke:rgb(79,213,213);stroke-width:5.35px;stroke-linecap:round;stroke-miterlimit:1.5;"/>
        <g transform="matrix(-1,0,0,1,299.16,-0.254121)">
            <path d="M149.808,39.775C136.594,53.298 138.183,60.821 139.1,77.278C139.742,88.791 140.396,88.837 147.496,97.827" style="fill:none;stroke:rgb(79,213,213);stroke-width:5.35px;stroke-linecap:round;stroke-miterlimit:1.5;"/>
        </g>
    </g>
    <defs>
        <linearGradient id="_Linear1" x1="0" y1="0" x2="1" y2="0" gradientUnits="userSpaceOnUse" gradientTransform="matrix(212.762,-228.261,228.261,212.762,374.863,398.118)"><stop offset="0" style="stop-color:rgb(182,126,252);stop-opacity:1"/><stop offset="0.8" style="stop-color:rgb(198,150,253);stop-opacity:1"/><stop offset="1" style="stop-color:rgb(216,179,254);stop-opacity:1"/></linearGradient>
        <linearGradient id="_Linear2" x1="0" y1="0" x2="1" y2="0" gradientUnits="userSpaceOnUse" gradientTransform="matrix(-300.121,336.756,-336.756,-300.121,553.051,84.1302)"><stop offset="0" style="stop-color:rgb(179,112,255);stop-opacity:1"/><stop offset="0.8" style="stop-color:rgb(118,57,198);stop-opacity:1"/><stop offset="1" style="stop-color:rgb(123,57,198);stop-opacity:1"/></linearGradient>
        <linearGradient id="_Linear3" x1="0" y1="0" x2="1" y2="0" gradientUnits="userSpaceOnUse" gradientTransform="matrix(429.751,-433.978,433.978,429.751,45.9916,496.718)"><stop offset="0" style="stop-color:rgb(89,45,143);stop-opacity:1"/><stop offset="0.8" style="stop-color:rgb(118,57,198);stop-opacity:1"/><stop offset="1" style="stop-color:rgb(151,71,255);stop-opacity:1"/></linearGradient>
        <linearGradient id="_Linear4" x1="0" y1="0" x2="1" y2="0" gradientUnits="userSpaceOnUse" gradientTransform="matrix(429.751,-433.978,433.978,429.751,-70.6145,381.248)"><stop offset="0" style="stop-color:rgb(89,45,143);stop-opacity:1"/><stop offset="0.8" style="stop-color:rgb(118,57,198);stop-opacity:1"/><stop offset="1" style="stop-color:rgb(151,71,255);stop-opacity:1"/></linearGradient>
    </defs>
</svg>
